<?xml version="1.0" encoding="utf-8"?>
<!-- Svg Vector Icons : http://www.onlinewebfonts.com/icon -->
<!DOCTYPE svg PUBLIC "-//W3C//DTD SVG 1.1//EN" "http://www.w3.org/Graphics/SVG/1.1/DTD/svg11.dtd">
<svg version="1.1" xmlns="http://www.w3.org/2000/svg" xmlns:xlink="http://www.w3.org/1999/xlink" x="0px" y="0px" viewBox="0 0 1000 1000" enable-background="new 0 0 1000 1000" xml:space="preserve">
<metadata> Svg Vector Icons : http://www.onlinewebfonts.com/icon </metadata>
<g><path d="M990,433.9v133.4c0,18.3-6.6,34.1-19.9,47.4c-13.3,13.3-29.1,19.5-47.4,18.7H633.4v290.5c0,18.3-6.7,33.7-20,46.1c-13.3,12.5-29.1,19.1-47.4,19.9H432.7c-18.3,0-34.1-6.7-47.4-19.9s-19.5-28.7-18.7-46.1V633.4H77.3c-19.1,0-34.9-6.2-47.4-18.7c-12.5-12.5-19.1-28.3-19.9-47.4V433.9c0-19.1,6.6-34.9,19.9-47.4c13.3-12.5,29.1-19.1,47.4-19.9h289.3V77.3c0-18.3,6.2-34.1,18.7-47.4S413.6,10,432.7,10h133.4c19.1,0,34.9,6.6,47.4,19.9c12.5,13.3,19.1,29.1,20,47.4v289.3h289.3c18.3,0,34.1,6.6,47.4,19.9C983.4,399.8,990,415.6,990,433.9z"/></g>
</svg>